<?xml version="1.0" encoding="UTF-8" standalone="no"?>
<!-- Created with Inkscape (http://www.inkscape.org/) -->

<svg
   width="210mm"
   height="297mm"
   viewBox="0 0 210 297"
   version="1.1"
   id="svg5"
   xml:space="preserve"
   xmlns:inkscape="http://www.inkscape.org/namespaces/inkscape"
   xmlns:sodipodi="http://sodipodi.sourceforge.net/DTD/sodipodi-0.dtd"
   xmlns="http://www.w3.org/2000/svg"
   xmlns:svg="http://www.w3.org/2000/svg"><sodipodi:namedview
     id="namedview7"
     pagecolor="#505050"
     bordercolor="#eeeeee"
     borderopacity="1"
     inkscape:showpageshadow="0"
     inkscape:pageopacity="0"
     inkscape:pagecheckerboard="0"
     inkscape:deskcolor="#505050"
     inkscape:document-units="mm"
     showgrid="false" /><defs
     id="defs2" /><g
     inkscape:label="Camada 1"
     inkscape:groupmode="layer"
     id="layer1"><g
       id="g227"
       transform="translate(254.81962,-5.5156383)"><path
         style="fill:#cbcbcb;stroke-width:0.234487"
         d="m -149.94102,193.32784 c 0.15765,-0.0665 0.41563,-0.0665 0.57329,0 0.15765,0.0665 0.0287,0.12094 -0.28665,0.12094 -0.31531,0 -0.4443,-0.0544 -0.28664,-0.12094 z m 4.37132,-0.005 c 0.16553,-0.0693 0.36332,-0.0607 0.43952,0.0189 0.0762,0.0797 -0.0592,0.13634 -0.30098,0.12593 -0.26714,-0.0115 -0.32147,-0.0683 -0.13854,-0.14486 z m 33.98162,-9.78692 c 0.29622,-0.3297 0.59017,-0.59944 0.65323,-0.59944 0.0631,0 -0.1277,0.26974 -0.42392,0.59944 -0.29621,0.32969 -0.59017,0.59944 -0.65323,0.59944 -0.0631,0 0.1277,-0.26975 0.42392,-0.59944 z m -73.51726,-0.89916 -0.43684,-0.5395 0.51596,0.45677 c 0.28378,0.25122 0.51596,0.494 0.51596,0.5395 0,0.19188 -0.18455,0.0502 -0.59508,-0.45677 z m 75.69575,-1.37872 c 0.49262,-0.5275 0.94728,-0.9591 1.01034,-0.9591 0.0631,0 -0.2884,0.4316 -0.78102,0.9591 -0.49263,0.52751 -0.94728,0.95911 -1.01034,0.95911 -0.0631,0 0.2884,-0.4316 0.78102,-0.95911 z m -76.73513,0.29972 c -0.28524,-0.3803 -0.27713,-0.38878 0.0866,-0.0905 0.22072,0.181 0.4013,0.36982 0.4013,0.41961 0,0.19735 -0.18831,0.0703 -0.48788,-0.32908 z m 4.14909,-2.87731 -1.2534,-1.37871 1.31856,1.31057 c 1.22499,1.21757 1.42361,1.44685 1.2534,1.44685 -0.0358,0 -0.62919,-0.62042 -1.31856,-1.37871 z m -14.17349,-33.38882 c 0,-0.32969 0.052,-0.46456 0.11566,-0.29972 0.0636,0.16485 0.0636,0.4346 0,0.59944 -0.0636,0.16485 -0.11566,0.03 -0.11566,-0.29972 z m 96.54163,-4.79552 c 0,-0.32969 0.0521,-0.46457 0.11566,-0.29972 0.0636,0.16484 0.0636,0.43459 0,0.59944 -0.0636,0.16484 -0.11566,0.03 -0.11566,-0.29972 z m -96.55973,-0.61942 c 0.011,-0.27933 0.0653,-0.33614 0.13854,-0.14487 0.0662,0.17309 0.0581,0.3799 -0.0181,0.45957 -0.0762,0.0797 -0.1304,-0.0619 -0.12044,-0.3147 z m -23.69221,-0.0297 c 0.28525,-0.0574 0.69801,-0.0552 0.91726,0.005 0.21924,0.06 -0.0142,0.10694 -0.51863,0.10427 -0.5045,-0.003 -0.68388,-0.0518 -0.39863,-0.10911 z m 144.3555,0.003 c 0.22312,-0.0608 0.53269,-0.0568 0.68795,0.009 0.15525,0.0657 -0.0273,0.11542 -0.40567,0.11053 -0.37837,-0.005 -0.5054,-0.0586 -0.28228,-0.11942 z m -38.47914,-32.9829 -1.36871,-1.4986 1.43322,1.43115 c 1.33134,1.32942 1.53815,1.56605 1.36871,1.56605 -0.0355,0 -0.68043,-0.67437 -1.43322,-1.4986 z m -68.21404,0.41961 c 0.29622,-0.32969 0.59017,-0.59944 0.65323,-0.59944 0.0631,0 -0.1277,0.26975 -0.42392,0.59944 -0.29621,0.32969 -0.59017,0.59944 -0.65323,0.59944 -0.0631,0 0.1277,-0.26975 0.42392,-0.59944 z m 74.95676,-0.29972 c -0.28524,-0.3803 -0.27712,-0.38878 0.0866,-0.0905 0.22072,0.181 0.4013,0.36982 0.4013,0.41961 0,0.19735 -0.18831,0.0703 -0.48788,-0.32908 z m -80.00169,-1.57363 c 0,-0.0413 0.33537,-0.39194 0.74527,-0.77927 l 0.74527,-0.70424 -0.67351,0.77927 c -0.62782,0.72639 -0.81703,0.88948 -0.81703,0.70424 z m 77.60135,-1.18379 -0.43684,-0.5395 0.51595,0.45677 c 0.48488,0.42925 0.62036,0.62222 0.43685,0.62222 -0.0435,0 -0.2757,-0.24277 -0.51596,-0.53949 z m -75.99615,-0.51014 c 0,-0.0498 0.18059,-0.23862 0.4013,-0.41961 0.36371,-0.29825 0.37182,-0.28977 0.0866,0.0905 -0.29957,0.39941 -0.48788,0.52642 -0.48788,0.32908 z m 1.37589,-1.46802 c 0.29622,-0.32969 0.59018,-0.59944 0.65324,-0.59944 0.0631,0 -0.1277,0.26975 -0.42392,0.59944 -0.29622,0.3297 -0.59017,0.59944 -0.65324,0.59944 -0.0631,0 0.12771,-0.26974 0.42392,-0.59944 z m 78.2893,-2.337812 -0.43684,-0.5395 0.51596,0.45677 c 0.48487,0.429252 0.62035,0.622222 0.43684,0.622222 -0.0435,0 -0.2757,-0.24277 -0.51596,-0.539492 z m -1.03938,-1.079 c -0.28524,-0.3803 -0.27713,-0.38878 0.0866,-0.0905 0.22071,0.181 0.4013,0.36982 0.4013,0.41961 0,0.19735 -0.18831,0.0703 -0.48788,-0.32908 z m -43.13931,-6.45292 c 0.15766,-0.0665 0.41564,-0.0665 0.57329,0 0.15766,0.0665 0.0287,0.12094 -0.28664,0.12094 -0.31531,0 -0.4443,-0.0544 -0.28665,-0.12094 z m 6.20584,-5.040293 c 0.16554,-0.06927 0.36332,-0.06075 0.43952,0.01892 0.0762,0.07967 -0.0592,0.136346 -0.30097,0.125935 -0.26714,-0.01151 -0.32148,-0.06832 -0.13855,-0.144863 z m -1.04188,-5.756997 c 0.22311,-0.06079 0.53269,-0.0568 0.68794,0.0089 0.15525,0.06568 -0.0273,0.115421 -0.40566,0.110534 -0.37837,-0.0049 -0.5054,-0.05863 -0.28228,-0.119418 z m -8.25145,-13.38078 c 0.002,-0.659384 0.0463,-0.900673 0.099,-0.536199 0.0527,0.364474 0.0513,0.90397 -0.003,1.198881 -0.0544,0.29491 -0.0976,-0.0033 -0.0958,-0.662682 z m 10.74843,-1.558545 c 0,-0.329692 0.052,-0.464566 0.11566,-0.29972 0.0636,0.164846 0.0636,0.434594 0,0.599441 -0.0636,0.164846 -0.11566,0.02997 -0.11566,-0.299721 z"
         id="path207" /><path
         style="fill:#adadad;stroke-width:0.234487"
         d="m -150.61463,193.32284 c 0.16553,-0.0693 0.36332,-0.0607 0.43952,0.0189 0.0762,0.0797 -0.0592,0.13635 -0.30098,0.12594 -0.26714,-0.0115 -0.32148,-0.0683 -0.13854,-0.14487 z m 39.71449,-10.47688 c 0,-0.0498 0.18059,-0.23862 0.4013,-0.41961 0.36371,-0.29825 0.37182,-0.28977 0.0866,0.0905 -0.29957,0.39941 -0.48788,0.52642 -0.48788,0.32908 z m -6.42082,-0.71933 c 0,-0.0498 0.18059,-0.23862 0.4013,-0.41961 0.36371,-0.29825 0.37182,-0.28977 0.0866,0.0905 -0.29957,0.39941 -0.48788,0.52642 -0.48788,0.32908 z m -63.09088,-1.76774 c -0.28524,-0.3803 -0.27713,-0.38878 0.0866,-0.0905 0.38198,0.31324 0.50345,0.51014 0.31472,0.51014 -0.0476,0 -0.2282,-0.18882 -0.4013,-0.41961 z m 65.15472,-0.13497 c 0,-0.0413 0.33537,-0.39194 0.74527,-0.77927 l 0.74528,-0.70425 -0.67352,0.77928 c -0.62782,0.72639 -0.81703,0.88948 -0.81703,0.70424 z m 1.83452,-1.91821 c 0,-0.0413 0.33537,-0.39194 0.74527,-0.77927 l 0.74528,-0.70425 -0.67352,0.77928 c -0.62782,0.72639 -0.81703,0.88948 -0.81703,0.70424 z m -70.19965,-1.30368 c -0.28524,-0.3803 -0.27713,-0.38878 0.0866,-0.0905 0.38198,0.31323 0.50345,0.51013 0.31472,0.51013 -0.0476,0 -0.22821,-0.18882 -0.4013,-0.4196 z m 72.72211,-1.58913 c 0,-0.0498 0.18059,-0.23862 0.4013,-0.41961 0.36371,-0.29825 0.37182,-0.28977 0.0866,0.0905 -0.29957,0.3994 -0.48788,0.52642 -0.48788,0.32908 z M -217.8156,146.5607 c 0.28525,-0.0574 0.69802,-0.0552 0.91726,0.005 0.21925,0.06 -0.0142,0.10694 -0.51863,0.10428 -0.50449,-0.003 -0.68387,-0.0518 -0.39863,-0.10912 z m 5.50695,-0.006 c 0.53936,-0.0506 1.36489,-0.0499 1.83452,0.002 0.46963,0.0515 0.0283,0.093 -0.98065,0.0921 -1.00898,-9.6e-4 -1.39323,-0.043 -0.85387,-0.0937 z m 6.87945,0 c 0.53936,-0.0506 1.36489,-0.0499 1.83452,0.002 0.46963,0.0515 0.0283,0.093 -0.98065,0.0921 -1.00898,-9.6e-4 -1.39323,-0.043 -0.85387,-0.0937 z m 9.26008,-0.30368 c 0,-0.3297 0.052,-0.46457 0.11566,-0.29972 0.0636,0.16484 0.0636,0.43459 0,0.59944 -0.0636,0.16484 -0.11566,0.03 -0.11566,-0.29972 z m 101.95165,0.31033 c 0.28378,-0.0572 0.74814,-0.0572 1.03192,0 0.28378,0.0571 0.0516,0.10391 -0.51596,0.10391 -0.56755,0 -0.79974,-0.0468 -0.51596,-0.10391 z m 5.73894,-0.007 c 0.53936,-0.0507 1.36489,-0.0499 1.83452,0.002 0.46963,0.0515 0.0283,0.093 -0.98065,0.0921 -1.00899,-9.6e-4 -1.39323,-0.043 -0.85387,-0.0937 z m 6.87945,0 c 0.53936,-0.0507 1.36489,-0.0499 1.83452,0.002 0.46963,0.0515 0.0283,0.093 -0.98065,0.0921 -1.00899,-9.6e-4 -1.39323,-0.043 -0.85387,-0.0937 z m 4.19704,-0.9231 c 0.011,-0.27933 0.0653,-0.33614 0.13855,-0.14487 0.0662,0.17309 0.0581,0.3799 -0.0181,0.45957 -0.0762,0.0797 -0.1304,-0.0619 -0.12044,-0.3147 z m -22.24356,-5.99441 c 0.011,-0.27932 0.0654,-0.33614 0.13855,-0.14486 0.0662,0.17309 0.0581,0.3799 -0.0181,0.45957 -0.0762,0.0797 -0.13039,-0.0619 -0.12044,-0.31471 z m -12.53756,-30.85119 -0.43684,-0.53949 0.51596,0.45677 c 0.28378,0.25122 0.51596,0.49399 0.51596,0.53949 0,0.19189 -0.18455,0.0502 -0.59508,-0.45677 z m -71.18053,-0.29972 c 0.29622,-0.32969 0.59017,-0.59944 0.65324,-0.59944 0.0631,0 -0.1277,0.26975 -0.42392,0.59944 -0.29622,0.3297 -0.59017,0.59944 -0.65324,0.59944 -0.0631,0 0.12771,-0.26974 0.42392,-0.59944 z m 1.83452,-1.87335 c 0,-0.0413 0.33538,-0.39193 0.74528,-0.77927 l 0.74527,-0.70424 -0.67352,0.77927 c -0.62781,0.72639 -0.81703,0.88948 -0.81703,0.70424 z m 71.05841,-3.22189 c -0.28524,-0.3803 -0.27713,-0.38878 0.0866,-0.0905 0.38198,0.31324 0.50346,0.51014 0.31472,0.51014 -0.0476,0 -0.2282,-0.18883 -0.4013,-0.41961 z m -79.54306,-3.29692 c 0.29621,-0.329692 0.59017,-0.599442 0.65323,-0.599442 0.0631,0 -0.1277,0.26975 -0.42392,0.599442 -0.29622,0.32969 -0.59017,0.59944 -0.65323,0.59944 -0.0631,0 0.1277,-0.26975 0.42392,-0.59944 z m 1.26123,-1.318772 c 0.22828,-0.26375 0.46665,-0.47955 0.52971,-0.47955 0.0631,0 -0.0721,0.2158 -0.30039,0.47955 -0.22829,0.26375 -0.46666,0.47955 -0.52972,0.47955 -0.0631,0 0.0721,-0.2158 0.3004,-0.47955 z m 81.03361,-0.65939 c -0.28524,-0.38029 -0.27712,-0.38878 0.0866,-0.0905 0.38198,0.31324 0.50346,0.51014 0.31472,0.51014 -0.0476,0 -0.2282,-0.18882 -0.4013,-0.41961 z m -37.39209,-10.773823 c 0.16553,-0.06927 0.36332,-0.06075 0.43952,0.01892 0.0762,0.07967 -0.0592,0.136346 -0.30098,0.125935 -0.26714,-0.01151 -0.32147,-0.06832 -0.13854,-0.144863 z"
         id="path205" /><path
         style="fill:#8b8b8b;stroke-width:0.234487"
         d="m -151.54623,193.32784 c 0.15766,-0.0665 0.41564,-0.0665 0.57329,0 0.15766,0.0665 0.0287,0.12094 -0.28664,0.12094 -0.31531,0 -0.4443,-0.0544 -0.28665,-0.12094 z m -36.20369,-13.68828 c -0.28524,-0.3803 -0.27713,-0.38878 0.0866,-0.0905 0.22071,0.181 0.4013,0.36982 0.4013,0.41961 0,0.19735 -0.18831,0.0703 -0.48788,-0.32908 z m -27.99845,-33.08515 c 0.53935,-0.0506 1.36489,-0.0499 1.83452,0.002 0.46962,0.0515 0.0283,0.093 -0.98065,0.0921 -1.00899,-9.6e-4 -1.39323,-0.043 -0.85387,-0.0937 z m 6.87945,0 c 0.53935,-0.0506 1.36489,-0.0499 1.83452,0.002 0.46962,0.0515 0.0283,0.093 -0.98065,0.0921 -1.00899,-9.6e-4 -1.39323,-0.043 -0.85387,-0.0937 z m 6.41743,0.006 c 0.28525,-0.0574 0.69801,-0.0552 0.91726,0.005 0.21925,0.06 -0.0142,0.10694 -0.51863,0.10428 -0.50449,-0.003 -0.68388,-0.0518 -0.39863,-0.10912 z m 110.53323,-0.006 c 0.53936,-0.0506 1.3649,-0.0499 1.83452,0.002 0.46963,0.0515 0.0283,0.093 -0.98065,0.0921 -1.00898,-9.6e-4 -1.39322,-0.043 -0.85387,-0.0937 z m 6.87945,0 c 0.53936,-0.0506 1.3649,-0.0499 1.83452,0.002 0.46963,0.0515 0.0283,0.093 -0.98065,0.0921 -1.00898,-9.6e-4 -1.39322,-0.043 -0.85387,-0.0937 z m 6.41744,0.006 c 0.28525,-0.0574 0.69801,-0.0552 0.91726,0.005 0.21924,0.06 -0.0142,0.10694 -0.51863,0.10428 -0.5045,-0.003 -0.68388,-0.0518 -0.39863,-0.10912 z m -139.78281,-1.38867 c 0.005,-0.39563 0.0561,-0.52845 0.11421,-0.29515 0.0581,0.23329 0.0543,0.55699 -0.008,0.71932 -0.0628,0.16234 -0.11039,-0.0285 -0.10572,-0.42417 z m 141.02874,-0.47955 c 0.005,-0.39563 0.0561,-0.52845 0.11421,-0.29516 0.0581,0.2333 0.0543,0.557 -0.009,0.71933 -0.0628,0.16234 -0.11038,-0.0285 -0.10571,-0.42417 z m -141.02874,-3.59664 c 0.005,-0.39563 0.0561,-0.52845 0.11421,-0.29516 0.0581,0.2333 0.0543,0.55699 -0.008,0.71933 -0.0628,0.16234 -0.11039,-0.0285 -0.10572,-0.42417 z m 141.02024,-0.35967 c 0,-0.32969 0.0521,-0.46456 0.11567,-0.29972 0.0636,0.16485 0.0636,0.4346 0,0.59944 -0.0636,0.16485 -0.11567,0.03 -0.11567,-0.29972 z m -22.26166,-1.8183 c 0.011,-0.27932 0.0654,-0.33614 0.13855,-0.14486 0.0662,0.17308 0.0581,0.37989 -0.0181,0.45957 -0.0762,0.0797 -0.13039,-0.0619 -0.12044,-0.31471 z m -88.5337,-32.32044 c 0,-0.0498 0.18058,-0.23861 0.4013,-0.41961 0.36371,-0.29825 0.37182,-0.28977 0.0866,0.0905 -0.29957,0.39941 -0.48788,0.52643 -0.48788,0.32908 z m 83.44142,-5.36438 c -0.28524,-0.38029 -0.27713,-0.38878 0.0866,-0.0905 0.38198,0.31324 0.50345,0.51014 0.31472,0.51014 -0.0476,0 -0.2282,-0.18882 -0.4013,-0.41961 z m -86.42252,0.0893 c 0,-0.0498 0.18059,-0.23862 0.4013,-0.41961 0.36371,-0.29825 0.37182,-0.28977 0.0866,0.0905 -0.29957,0.39941 -0.48788,0.52642 -0.48788,0.32908 z m 8.02603,0 c 0,-0.0498 0.18058,-0.23862 0.4013,-0.41961 0.36371,-0.29825 0.37182,-0.28977 0.0866,0.0905 -0.29957,0.39941 -0.48788,0.52642 -0.48788,0.32908 z m -5.04493,-3.117092 c 0,-0.0498 0.18058,-0.23862 0.4013,-0.41961 0.36371,-0.29825 0.37182,-0.28977 0.0866,0.0905 -0.29957,0.39941 -0.48788,0.52642 -0.48788,0.32908 z m 36.63307,-5.8229 c 0.15766,-0.0665 0.41564,-0.0665 0.57329,0 0.15766,0.0665 0.0287,0.12094 -0.28664,0.12094 -0.31531,0 -0.4443,-0.0544 -0.28665,-0.12094 z m 1.03629,-5.042662 c 0.22311,-0.06079 0.53269,-0.0568 0.68794,0.0089 0.15525,0.06568 -0.0273,0.115421 -0.40566,0.110535 -0.37837,-0.0049 -0.5054,-0.05863 -0.28228,-0.119418 z m 4.46727,0.0074 c 0.15766,-0.06652 0.41564,-0.06652 0.57329,0 0.15766,0.06652 0.0287,0.12094 -0.28664,0.12094 -0.31531,0 -0.4443,-0.05442 -0.28665,-0.12094 z"
         id="path203" /><path
         style="fill:#616161;stroke-width:0.234487"
         d="m -152.21984,193.32284 c 0.16554,-0.0693 0.36332,-0.0607 0.43952,0.0189 0.0762,0.0797 -0.0592,0.13635 -0.30097,0.12594 -0.26714,-0.0115 -0.32148,-0.0683 -0.13855,-0.14487 z m 8.25534,0 c 0.16554,-0.0693 0.36332,-0.0607 0.43952,0.0189 0.0762,0.0797 -0.0592,0.13635 -0.30097,0.12594 -0.26714,-0.0115 -0.32148,-0.0683 -0.13855,-0.14487 z m -35.7594,-12.24462 c -0.28524,-0.3803 -0.27712,-0.38878 0.0866,-0.0905 0.22072,0.181 0.4013,0.36982 0.4013,0.41961 0,0.19734 -0.18831,0.0703 -0.48788,-0.32908 z m 63.3202,0.32908 c 0,-0.0498 0.18059,-0.23861 0.4013,-0.41961 0.36371,-0.29825 0.37182,-0.28977 0.0866,0.0905 -0.29957,0.39941 -0.48788,0.52642 -0.48788,0.32908 z m -68.13581,-5.36438 c -0.28524,-0.3803 -0.27713,-0.38878 0.0866,-0.0905 0.22071,0.181 0.4013,0.36982 0.4013,0.41961 0,0.19735 -0.18831,0.0703 -0.48788,-0.32908 z m 72.95143,0.32908 c 0,-0.0498 0.18058,-0.23861 0.4013,-0.41961 0.36371,-0.29825 0.37182,-0.28977 0.0866,0.0905 -0.29957,0.39941 -0.48788,0.52643 -0.48788,0.32908 z m -89.18544,-28.34292 c 0.011,-0.27933 0.0653,-0.33615 0.13854,-0.14487 0.0662,0.17309 0.0581,0.3799 -0.0181,0.45957 -0.0762,0.0797 -0.1304,-0.0619 -0.12044,-0.3147 z m -17.60197,-4.89543 c 0,-0.8572 0.0416,-1.20788 0.0925,-0.77928 0.0509,0.4286 0.0509,1.12995 0,1.55855 -0.0509,0.4286 -0.0925,0.0779 -0.0925,-0.77927 z m 141.02406,-0.71933 c 0,-0.72533 0.043,-1.02205 0.0955,-0.65939 0.0525,0.36266 0.0525,0.95611 0,1.31877 -0.0525,0.36266 -0.0955,0.0659 -0.0955,-0.65938 z m -107.38815,-32.46031 c 0,-0.0498 0.18059,-0.23862 0.4013,-0.41961 0.36371,-0.29825 0.37182,-0.28977 0.0866,0.0905 -0.29957,0.39941 -0.48788,0.52642 -0.48788,0.32908 z m 73.35156,-0.32908 c -0.28524,-0.3803 -0.27713,-0.38878 0.0866,-0.0905 0.22072,0.18099 0.4013,0.36982 0.4013,0.41961 0,0.19734 -0.18831,0.0703 -0.48788,-0.32908 z m -68.53594,-4.70622 c 0,-0.0498 0.18058,-0.23861 0.4013,-0.41961 0.36371,-0.29825 0.37182,-0.28977 0.0866,0.0905 -0.29957,0.39941 -0.48788,0.52642 -0.48788,0.32908 z m -11.92438,-2.87731 c 0,-0.0498 0.18058,-0.23862 0.4013,-0.41961 0.36371,-0.29825 0.37182,-0.28977 0.0866,0.0905 -0.29957,0.3994 -0.48788,0.52642 -0.48788,0.32908 z m 4.35698,-4.555752 c 0,-0.0498 0.18059,-0.23861 0.4013,-0.41961 0.36371,-0.29825 0.37182,-0.28977 0.0866,0.0905 -0.29957,0.39941 -0.48788,0.52642 -0.48788,0.32908 z m 35.27152,-5.10856 c 0.16554,-0.0693 0.36332,-0.0607 0.43952,0.0189 0.0762,0.0797 -0.0592,0.13635 -0.30097,0.12594 -0.26714,-0.0115 -0.32148,-0.0683 -0.13855,-0.14486 z m 8.25534,0 c 0.16554,-0.0693 0.36332,-0.0607 0.43952,0.0189 0.0762,0.0797 -0.0592,0.13635 -0.30097,0.12594 -0.26714,-0.0115 -0.32148,-0.0683 -0.13855,-0.14486 z m -8.94328,-4.795527 c 0.16553,-0.06926 0.36332,-0.06075 0.43952,0.01892 0.0762,0.07968 -0.0592,0.136346 -0.30098,0.125935 -0.26714,-0.01151 -0.32148,-0.06832 -0.13854,-0.144863 z m 4.11939,-0.251859 c 0.53936,-0.05065 1.3649,-0.04994 1.83453,0.0017 0.46962,0.05152 0.0283,0.09296 -0.98065,0.09209 -1.00899,-9.59e-4 -1.39323,-0.04303 -0.85388,-0.09368 z"
         id="path201" /><path
         style="fill:#323232;stroke-width:0.234487"
         d="m -147.76253,193.56113 c 0.22072,-0.0603 0.58189,-0.0603 0.8026,0 0.22072,0.0603 0.0401,0.10965 -0.4013,0.10965 -0.44143,0 -0.62201,-0.0493 -0.4013,-0.10965 z m 4.47164,-0.23329 c 0.15766,-0.0665 0.41564,-0.0665 0.57329,0 0.15766,0.0665 0.0287,0.12094 -0.28664,0.12094 -0.31531,0 -0.4443,-0.0544 -0.28665,-0.12094 z m -38.95547,-8.17342 c -0.28524,-0.3803 -0.27713,-0.38878 0.0866,-0.0905 0.22071,0.18099 0.4013,0.36981 0.4013,0.4196 0,0.19735 -0.18831,0.0703 -0.48788,-0.32907 z m 68.36513,0.32907 c 0,-0.0498 0.18058,-0.23861 0.4013,-0.4196 0.36371,-0.29825 0.37182,-0.28977 0.0866,0.0905 -0.29957,0.3994 -0.48788,0.52642 -0.48788,0.32907 z m -71.54629,-3.38622 c -0.93961,-0.98908 -1.65679,-1.79832 -1.59373,-1.79832 0.0631,0 0.88343,0.80924 1.82304,1.79832 0.93961,0.98908 1.65679,1.79832 1.59373,1.79832 -0.0631,0 -0.88343,-0.80924 -1.82304,-1.79832 z m 73.38081,1.73238 c 0,-0.0363 0.79973,-0.87249 1.77719,-1.85827 l 1.77719,-1.79232 -1.71412,1.85827 c -1.59204,1.72591 -1.84026,1.96766 -1.84026,1.79232 z m -70.06653,-5.0293 -0.90647,-1.01905 0.97458,0.94782 c 0.53603,0.5213 0.97459,0.97988 0.97459,1.01905 0,0.18141 -0.1997,-1.2e-4 -1.0427,-0.94782 z m 68.45174,0 c 0.95027,-1.05866 1.15616,-1.24902 1.15616,-1.06897 0,0.0385 -0.49016,0.551 -1.08925,1.13893 l -1.08924,1.06897 z m -74.77637,-0.11989 c -0.28524,-0.3803 -0.27713,-0.38878 0.0866,-0.0905 0.22072,0.18099 0.4013,0.36982 0.4013,0.41961 0,0.19734 -0.18831,0.0703 -0.48788,-0.32908 z m -7.74935,-30.89116 c 0.011,-0.27933 0.0653,-0.33614 0.13854,-0.14487 0.0662,0.17309 0.0581,0.3799 -0.0181,0.45958 -0.0762,0.0797 -0.1304,-0.0619 -0.12044,-0.31471 z m 96.82623,-4.89543 c 0,-0.8572 0.0416,-1.20787 0.0925,-0.77927 0.0509,0.4286 0.0509,1.12994 0,1.55854 -0.0509,0.4286 -0.0925,0.0779 -0.0925,-0.77927 z m -97.02895,-0.35966 c 0.005,-0.39564 0.0561,-0.52846 0.11421,-0.29516 0.0581,0.23329 0.0543,0.55699 -0.008,0.71933 -0.0628,0.16233 -0.11039,-0.0285 -0.10571,-0.42417 z m 96.74434,-4.57573 c 0.011,-0.27933 0.0654,-0.33614 0.13855,-0.14487 0.0662,0.17309 0.0581,0.3799 -0.0181,0.45957 -0.0762,0.0797 -0.13039,-0.0619 -0.12044,-0.3147 z m -105.09273,-2.43567 c 0.79322,-0.047 2.03152,-0.0466 2.75178,9.6e-4 0.72027,0.0474 0.0713,0.0859 -1.4422,0.0854 -1.51348,-4.8e-4 -2.10279,-0.0393 -1.30958,-0.0862 z m 110.75018,2.4e-4 c 0.78827,-0.0468 2.07816,-0.0468 2.86643,0 0.78828,0.0468 0.14333,0.0851 -1.43321,0.0851 -1.57654,0 -2.22149,-0.0383 -1.43322,-0.0851 z m -19.44229,-28.29588 -1.25339,-1.37871 1.31856,1.31057 c 1.22498,1.21757 1.42361,1.44685 1.2534,1.44685 -0.0358,0 -0.6292,-0.62042 -1.31857,-1.37871 z m -68.79625,-0.11989 c 0.56228,-0.62642 1.05244,-1.13894 1.08924,-1.13894 0.17219,0 -0.01,0.21528 -1.02233,1.2089 l -1.08925,1.06898 z m -3.20083,-3.41681 c 1.06648,-1.12095 1.99064,-2.0381 2.05371,-2.0381 0.0631,0 -0.75792,0.91715 -1.8244,2.0381 -1.06648,1.12095 -1.99064,2.0381 -2.05371,2.0381 -0.0631,0 0.75792,-0.91715 1.8244,-2.0381 z m 76.0035,1.01905 -0.67351,-0.77927 0.74527,0.70424 c 0.4099,0.38733 0.74527,0.73801 0.74527,0.77927 0,0.18524 -0.18921,0.0222 -0.81703,-0.70424 z m -1.83088,-1.91821 -0.90647,-1.01905 0.97459,0.94782 c 0.90636,0.88147 1.07997,1.09028 0.90647,1.09028 -0.0375,0 -0.47603,-0.45857 -0.97459,-1.01905 z m 7.66359,-0.35966 c -0.28524,-0.3803 -0.27712,-0.38879 0.0866,-0.0905 0.38198,0.31323 0.50346,0.51013 0.31472,0.51013 -0.0476,0 -0.2282,-0.18882 -0.4013,-0.4196 z m -10.08986,-1.91821 c -0.28524,-0.3803 -0.27713,-0.38878 0.0866,-0.0905 0.22072,0.18099 0.4013,0.36981 0.4013,0.4196 0,0.19735 -0.18831,0.0703 -0.48788,-0.32907 z m -73.12224,-3.747122 c 0,-0.0498 0.18058,-0.23861 0.4013,-0.41961 0.36371,-0.29825 0.37182,-0.28977 0.0866,0.0905 -0.29957,0.39941 -0.48788,0.52643 -0.48788,0.32908 z m 77.47923,-0.32908 c -0.28524,-0.3803 -0.27713,-0.38878 0.0866,-0.0905 0.38198,0.31324 0.50345,0.51014 0.31472,0.51014 -0.0476,0 -0.2282,-0.18882 -0.4013,-0.41961 z m -43.5836,-4.06015 c 0.16553,-0.0693 0.36332,-0.0607 0.43952,0.0189 0.0762,0.0797 -0.0592,0.13635 -0.30098,0.12594 -0.26714,-0.0115 -0.32148,-0.0683 -0.13854,-0.14486 z m 9.63123,0 c 0.16553,-0.0693 0.36332,-0.0607 0.43952,0.0189 0.0762,0.0797 -0.0592,0.13635 -0.30098,0.12594 -0.26714,-0.0115 -0.32147,-0.0683 -0.13854,-0.14486 z m -5.04493,-0.23978 c 0.16553,-0.0693 0.36332,-0.0608 0.43952,0.0189 0.0762,0.0797 -0.0592,0.13634 -0.30098,0.12593 -0.26714,-0.0115 -0.32148,-0.0683 -0.13854,-0.14486 z m 6.87945,-4.315971 c 0.16553,-0.06926 0.36332,-0.06075 0.43952,0.01892 0.0762,0.07967 -0.0592,0.136347 -0.30098,0.125935 -0.26714,-0.01151 -0.32147,-0.06832 -0.13854,-0.144863 z m -10.77781,-0.239776 c 0.16554,-0.06926 0.36332,-0.06075 0.43952,0.01892 0.0762,0.07968 -0.0592,0.136346 -0.30097,0.125935 -0.26714,-0.01151 -0.32148,-0.06832 -0.13855,-0.144863 z m 8.47032,0.005 c 0.15766,-0.06652 0.41564,-0.06652 0.57329,0 0.15766,0.06652 0.0287,0.120941 -0.28664,0.120941 -0.31531,0 -0.4443,-0.05442 -0.28665,-0.120941 z m 3.22475,-5.759622 c 0.16553,-0.06926 0.36332,-0.06075 0.43952,0.01892 0.0762,0.07968 -0.0592,0.136347 -0.30098,0.125936 -0.26714,-0.01151 -0.32147,-0.06832 -0.13854,-0.144864 z M -153.1371,81.58715 c 0.16554,-0.06926 0.36332,-0.06075 0.43952,0.01892 0.0762,0.07968 -0.0592,0.136347 -0.30097,0.125935 -0.26714,-0.01151 -0.32148,-0.06832 -0.13855,-0.144863 z m 10.54849,0 c 0.16554,-0.06926 0.36332,-0.06075 0.43952,0.01892 0.0762,0.07968 -0.0592,0.136347 -0.30097,0.125935 -0.26714,-0.01151 -0.32148,-0.06832 -0.13855,-0.144863 z m -6.32049,-0.252221 c 0.59908,-0.04939 1.5794,-0.04939 2.17849,0 0.59908,0.04939 0.10892,0.08981 -1.08925,0.08981 -1.19817,0 -1.68833,-0.04041 -1.08924,-0.08981 z"
         id="path199" /><path
         style="fill:#000000;stroke-width:0.234487"
         d="m -154.19642,209.61158 c -3.4282,-6.429 -6.41428,-11.99525 -6.63573,-12.36946 -0.34243,-0.57864 -0.91435,-0.85641 -3.825,-1.8577 -7.42366,-2.55381 -14.01981,-6.71843 -19.71572,-12.44793 -7.13475,-7.17683 -11.86681,-15.39582 -14.46447,-25.12296 -0.66905,-2.5053 -0.98108,-4.26914 -1.86526,-10.54375 l -0.10981,-0.77927 h -8.70358 -8.70358 v -3.35686 -3.35687 h -1.38193 c -1.33541,0 -1.5342,0.0897 -5.90487,2.66419 -2.48761,1.4653 -4.79556,2.83043 -5.12878,3.03361 -0.69189,0.42187 0.84181,1.2374 -12.64566,-6.72422 l -7.51864,-4.43824 0.75385,-0.47365 c 0.67325,-0.423 4.73713,-2.82486 15.38865,-9.09507 l 3.39836,-2.00051 5.16889,3.04448 5.1689,3.04448 2.0884,0.008 2.08841,0.008 1.18631,-4.90602 c 1.31719,-5.44724 2.1258,-7.97336 3.78137,-11.81303 1.93574,-4.48946 4.31262,-8.56223 8.00338,-13.713742 l 1.88964,-2.63753 -2.29554,-12.108698 c -1.26255,-6.659783 -2.27896,-12.128842 -2.25868,-12.153467 0.0203,-0.02462 4.96272,1.890391 10.98322,4.255583 l 10.94637,4.300354 2.46397,-1.485334 c 2.84399,-1.714423 6.52047,-3.461399 9.79779,-4.655678 3.94636,-1.438081 12.61591,-3.566445 17.03089,-4.181063 l 2.12117,-0.295291 V 67.769372 66.08481 l -2.88706,-5.348111 -2.88705,-5.348109 4.19252,-7.739453 c 2.30589,-4.2567 4.75045,-8.791472 5.43236,-10.077271 0.68191,-1.2858 1.31359,-2.337818 1.40372,-2.337818 0.0901,0 1.49078,2.454709 3.11254,5.454908 1.62176,3.000199 4.07676,7.532104 5.45555,10.070901 l 2.50689,4.615994 -2.89049,5.35448 -2.89049,5.354479 v 1.695071 1.695071 l 1.43322,0.165736 c 3.80255,0.439721 13.89867,2.886257 17.79825,4.312949 3.74299,1.369408 8.98239,3.979762 11.6331,5.7958 0.45404,0.311073 1.40896,-0.0193 11.46993,-3.968398 6.03606,-2.36925 10.99057,-4.288191 11.01003,-4.264316 0.0195,0.02388 -0.99686,5.492324 -2.25847,12.152107 l -2.29385,12.108698 1.88813,2.63753 c 3.69498,5.161532 6.06772,9.227982 8.00186,13.713742 1.66667,3.86541 2.47213,6.38644 3.7772,11.82242 l 1.1801,4.91542 1.94689,0.0137 c 2.23554,0.0157 1.99821,0.1204 8.64502,-3.81237 l 3.94635,-2.33497 4.5383,2.6808 c 2.49607,1.47444 6.89266,4.07927 9.7702,5.78852 l 5.2319,3.10772 -4.77327,2.80909 c -2.62529,1.545 -6.81516,4.01994 -9.31083,5.49986 -2.49566,1.47993 -4.76759,2.80037 -5.04875,2.93432 -0.43914,0.20921 -1.22651,-0.1807 -5.58691,-2.76667 -4.9651,-2.94459 -5.10621,-3.0102 -6.47433,-3.0102 h -1.3986 v 3.35687 3.35686 h -8.70358 -8.70358 l -0.11489,0.77927 c -0.0632,0.4286 -0.2292,1.69642 -0.36892,2.81737 -1.24328,9.97459 -4.87032,19.02727 -10.85575,27.09471 -1.53119,2.06381 -5.56146,6.37903 -7.74216,8.28955 -4.80795,4.21227 -11.06865,7.84727 -17.07354,9.91301 -2.91316,1.00216 -3.482,1.27856 -3.82314,1.8577 -0.22042,0.37421 -3.20817,5.94046 -6.63943,12.36946 -3.43126,6.429 -6.30155,11.68909 -6.37843,11.68909 -0.0769,0 -2.94466,-5.26009 -6.37286,-11.68909 z m 12.68273,-16.37983 c 13.85131,-1.895 26.60627,-10.30537 34.34095,-22.64374 1.97385,-3.14867 4.36461,-8.39116 5.56238,-12.19723 3.04026,-9.66081 3.04026,-21.33301 0,-30.99382 -5.25082,-16.68516 -17.94603,-29.204042 -34.15175,-33.677432 -7.18053,-1.98209 -16.48414,-2.00952 -23.84862,-0.0703 -20.15499,5.30717 -34.96134,23.648702 -36.55939,45.288352 -1.10036,14.90027 4.00691,29.3459 14.07233,39.80284 6.83385,7.09967 15.45787,11.95827 24.66325,13.89478 4.69799,0.9883 11.2602,1.2342 15.92085,0.59657 z m -58.33024,-60.7854 c 1.82378,-9.27965 5.01665,-16.6198 10.37031,-23.84047 1.68251,-2.26925 6.15096,-6.98134 8.40308,-8.861242 13.10078,-10.93553 29.96238,-14.780447 46.165,-10.52691 7.21253,1.89344 13.00778,4.76176 18.8379,9.32369 10.99771,8.605452 18.28802,21.184322 20.52875,35.420792 l 0.27361,1.73838 h 2.83219 c 1.5577,0 2.88063,-0.082 2.93985,-0.18215 0.20762,-0.35126 -0.78393,-5.96277 -1.59899,-9.04924 -2.74667,-10.40107 -7.93323,-19.59422 -15.37376,-27.249942 -3.17253,-3.26428 -3.60384,-3.65515 -6.50809,-5.8978 -14.03107,-10.834745 -32.24109,-14.578327 -49.17797,-10.109916 -20.54167,5.419456 -36.49923,21.704838 -42.3869,43.257658 -0.83293,3.04907 -1.84016,8.65564 -1.62149,9.02561 0.0716,0.12113 1.3835,0.19001 2.91534,0.15306 l 2.78515,-0.0672 z"
         id="path197" /></g><path
       style="fill:#74005d;fill-opacity:1;stroke-width:23.5095"
       d="m 392.64348,708.86759 c -43.63451,-2.65819 -80.77155,-20.0379 -113.80179,-53.25796 -35.95453,-36.16119 -54.12389,-77.78651 -55.84013,-127.92764 -1.97802,-57.78953 16.64024,-105.92968 56.28716,-145.53837 26.33253,-26.30714 51.18648,-40.4872 85.19696,-48.6079 15.21408,-3.63267 22.62915,-4.16388 47.08554,-3.37315 32.48495,1.05031 50.13524,5.60735 75.53383,19.50169 18.65293,10.20412 49.90727,34.97757 49.90727,39.55851 0,0.95122 1.89526,3.35227 4.21169,5.33565 13.51351,11.57064 33.50756,51.81666 40.6543,81.83306 4.69894,19.7356 4.73734,67.36427 0.0695,86.25397 -9.02676,36.52957 -26.44531,67.88089 -51.59164,92.85881 -18.50661,18.38265 -27.64961,25.09433 -48.37845,35.51358 -29.38786,14.77167 -55.20016,19.92919 -89.33426,17.84975 z"
       id="path367"
       transform="scale(0.26458333)" /><path
       style="fill:#bc0000;fill-opacity:1;stroke-width:23.5095"
       d="m 185.64189,482.5854 c 11.62033,-69.50765 53.825,-131.99116 111.89196,-165.65472 16.51644,-9.57519 39.98266,-19.02805 59.09209,-23.80398 23.36392,-5.83923 75.65588,-5.39402 98.72176,0.84051 42.91193,11.59877 75.01322,30.76723 105.77104,63.15848 30.98634,32.63188 50.44329,70.10871 59.82338,115.22823 1.7343,8.34226 3.15328,16.03978 3.15328,17.1056 0,1.06582 -4.43191,1.93444 -9.84868,1.93026 l -9.84868,-0.008 -4.42614,-20.20811 c -7.73286,-35.30516 -26.85433,-72.66633 -50.51914,-98.70849 -22.77593,-25.06399 -63.52812,-48.90686 -98.61134,-57.6945 -26.42924,-6.62 -69.19308,-6.58475 -94.07691,0.0775 -75.13827,20.11719 -129.45083,77.55457 -147.82113,156.32588 l -4.71283,20.20846 -10.03092,0.007 -10.03093,0.007 z"
       id="path10224"
       transform="scale(0.26458333)" /></g></svg>
